<?xml version="1.0" encoding="utf-8"?>
<!-- Generator: Adobe Illustrator 16.0.0, SVG Export Plug-In . SVG Version: 6.00 Build 0)  -->
<!DOCTYPE svg PUBLIC "-//W3C//DTD SVG 1.1//EN" "http://www.w3.org/Graphics/SVG/1.1/DTD/svg11.dtd">
<svg version="1.1" id="White_x5F_BG_1_" xmlns="http://www.w3.org/2000/svg" xmlns:xlink="http://www.w3.org/1999/xlink" x="0px"
	 y="0px" width="302.64px" height="78.24px" viewBox="0 0 302.64 78.24" enable-background="new 0 0 302.64 78.24"
	 xml:space="preserve">
<g id="icon_1_" enable-background="new    ">
	<g>
		<path fill="#CFD1D2" d="M72.032,21.09c-0.146,0.492-0.318,0.984-0.508,1.476c1.055,0.796,1.956,1.715,2.629,2.736
			c-1.154,4.548-6.585,9.626-12.609,10.594c6.942-0.143,13.603-5.484,14.976-10.689C75.478,23.571,73.904,22.166,72.032,21.09z"/>
		<path fill="#B1B3B4" d="M71.524,22.566c0.189-0.492,0.361-0.984,0.508-1.476c0.649-2.188,0.866-4.352,0.565-6.274
			c-1.915-1.278-4.288-2.063-6.833-2.363c0.103,0.594,0.174,1.205,0.223,1.825c1.397,0.219,2.666,0.611,3.726,1.18
			c1.4,5.421-1.92,14.43-9.13,18.54c0.027,0.097,0.044,0.197,0.07,0.295C65.761,32.083,69.665,27.395,71.524,22.566z"/>
		<path fill="#9C9E9F" d="M52.992,24.195c2.789,1.655,5.068,4.095,6.519,7.049c4.92-4.156,6.939-11.049,6.476-16.967
			c-0.048-0.621-0.12-1.231-0.223-1.825c-0.383-2.219-1.134-4.229-2.236-5.805c-4.093-0.55-8.811,0.948-12.686,3.824
			C53.07,14.562,54.142,19.519,52.992,24.195z"/>
		<path fill="#B1B3B4" d="M43.426,21.886c3.474-0.212,6.771,0.65,9.566,2.309c1.149-4.676,0.078-9.633-2.15-13.724
			c-2.243-4.118-5.652-7.36-9.154-8.55c-3.375,1.841-6.139,5.433-7.652,9.641C38.184,13.747,41.828,17.306,43.426,21.886z"/>
		<path fill="#9C9E9F" d="M43.033,21.899c0.132-0.011,0.261-0.005,0.393-0.013c-1.598-4.58-5.242-8.139-9.39-10.324
			c-4.234-2.23-8.985-3.036-12.614-2.027c-1.831,3.58-2.026,8.364-0.72,12.869c4.64-0.678,9.686,0.052,13.682,2.801
			C36.82,23.376,39.773,22.173,43.033,21.899z"/>
		<path fill="#B1B3B4" d="M34.383,25.205c-3.996-2.75-9.042-3.479-13.682-2.801c-4.692,0.686-8.966,2.8-11.3,5.716
			c0.592,3.859,3.096,7.742,6.625,10.61c3.355-3.071,7.765-5.252,12.456-5.336C29.562,30.11,31.646,27.26,34.383,25.205z"/>
		<path fill="#9C9E9F" d="M27.705,40.047c-0.195-2.321,0.092-4.571,0.777-6.652c-4.69,0.083-9.101,2.265-12.456,5.336
			c-3.55,3.25-5.924,7.481-6.188,11.259c2.662,2.815,6.887,4.579,11.383,4.95c1-4.415,3.37-8.688,7.15-11.426
			C28.037,42.405,27.806,41.247,27.705,40.047z"/>
		<path fill="#B1B3B4" d="M34.344,52.038c-2.79-2.104-4.923-5.055-5.972-8.524c-3.78,2.737-6.15,7.011-7.15,11.426
			c-1.07,4.725-0.595,9.59,1.367,12.856c3.837,0.79,8.368-0.213,12.294-2.538C33.284,61.118,32.851,56.353,34.344,52.038z"/>
		<path fill="#CFD1D2" d="M62.416,38.281c5.686,1.293,10.638,6.567,11.834,11.331c-0.62,0.943-1.479,1.824-2.502,2.609
			c0.237,0.524,0.458,1.053,0.647,1.586c1.879-1.062,3.44-2.407,4.446-3.927C75.452,44.261,69.238,39.019,62.416,38.281z"/>
		<path fill="#B1B3B4" d="M72.395,53.808c-0.189-0.533-0.41-1.062-0.647-1.586c-2.062-4.561-5.909-8.664-10.804-10.534
			c-0.008,0.045-0.014,0.091-0.023,0.136c6.655,3.289,10.813,12.696,9.269,18.681c-1.056,0.564-2.296,0.939-3.635,1.138
			c-0.049,0.721-0.138,1.429-0.266,2.12c2.657-0.229,5.096-0.966,6.962-2.192C73.652,59.122,73.321,56.427,72.395,53.808z"/>
		<path fill="#B1B3B4" d="M59.928,45.122c-1.337,3.186-3.63,5.89-6.553,7.73c1.218,4.383,0.549,9.072-1.311,13.074
			c3.974,2.557,8.564,3.77,12.23,3.113c0.973-1.529,1.637-3.335,1.996-5.278c0.128-0.691,0.217-1.399,0.266-2.12
			C66.958,55.777,64.764,49.167,59.928,45.122z"/>
		<path fill="#9C9E9F" d="M45.851,55.377c-4.288,0.361-8.323-0.937-11.507-3.339c-1.493,4.314-1.06,9.08,0.539,13.22
			c1.733,4.489,4.811,8.241,8.233,9.864c3.711-1.5,6.981-4.962,8.948-9.195c1.86-4.002,2.529-8.691,1.311-13.074
			C51.173,54.239,48.623,55.144,45.851,55.377z"/>
	</g>
</g>
<g id="charibin">
	<text transform="matrix(1 0 0 1 85.1494 54.6289)" fill="#9C9E9F" font-family="'Charter-Roman'" font-size="57">charibin</text>
</g>
</svg>
