<?xml version="1.0" encoding="utf-8"?>
<!-- Generator: Adobe Illustrator 15.1.0, SVG Export Plug-In . SVG Version: 6.00 Build 0)  -->
<!DOCTYPE svg PUBLIC "-//W3C//DTD SVG 1.1//EN" "http://www.w3.org/Graphics/SVG/1.1/DTD/svg11.dtd">
<svg version="1.1" xmlns="http://www.w3.org/2000/svg" xmlns:xlink="http://www.w3.org/1999/xlink" x="0px" y="0px"
	 width="162.333px" height="48.25px" viewBox="0 0 162.333 48.25" enable-background="new 0 0 162.333 48.25" xml:space="preserve">
<g id="Ebene_2">
</g>
<g id="Ebene_1">
	<path fill="#FDC400" d="M45.784,31.397c-0.866-3.497-4.733-6.762-8.98-7.22c3.539,0.804,6.622,4.087,7.366,7.053
		c-0.384,0.587-0.922,1.137-1.557,1.624c-1.283-2.837-3.676-5.396-6.725-6.56c-0.004,0.024-0.007,0.051-0.012,0.075
		c2.71,1.338,4.751,4.309,5.572,7.249c0.081,0.293,0.151,0.585,0.206,0.875c0.247,1.253,0.26,2.471-0.011,3.518
		c-0.657,0.351-1.428,0.586-2.263,0.709c0.079-1.152-0.005-2.346-0.249-3.524c-0.041-0.2-0.086-0.399-0.135-0.598
		c-0.596-2.347-1.841-4.572-3.741-6.163c-0.828,1.974-2.244,3.65-4.055,4.796l-0.015-0.012l0.004,0.021
		c-0.011,0.009-0.026,0.015-0.039,0.021c-0.645,0.407-1.343,0.737-2.08,0.997c-0.488,0.169-0.987,0.317-1.506,0.415
		c-0.351,0.066-0.709,0.116-1.074,0.145c-0.442,0.039-0.882,0.038-1.314,0.022c-0.084-0.006-0.166-0.013-0.248-0.018
		c-2.083-0.136-4.017-0.885-5.607-2.088c-0.084-0.062-0.166-0.124-0.248-0.188c-1.614-1.298-2.848-3.063-3.467-5.121
		c-0.016-0.052-0.031-0.103-0.043-0.158c-0.182-0.639-0.31-1.304-0.368-1.99c-0.121-1.445,0.058-2.848,0.486-4.145
		c0.007-0.024,0.018-0.045,0.025-0.067c0.656-1.948,1.873-3.649,3.474-4.903c0.056-0.042,0.116-0.083,0.173-0.125
		c1.516-1.138,3.355-1.887,5.384-2.058c0.068-0.006,0.133-0.001,0.202-0.006c0.014-0.003,0.027-0.003,0.043-0.003
		c0.508-0.031,1.009-0.022,1.501,0.02c0.105,0.007,0.211,0.009,0.316,0.02c1.241,0.143,2.421,0.509,3.5,1.053
		c0.118,0.061,0.244,0.116,0.364,0.181c0.091,0.051,0.178,0.109,0.269,0.163c1.736,1.029,3.157,2.548,4.061,4.386
		c2.125-1.793,3.384-4.403,3.858-7.064c0.033-0.188,0.058-0.375,0.086-0.562c0.134-0.992,0.162-1.981,0.087-2.933
		c0.871,0.135,1.661,0.38,2.321,0.735c0.215,0.843,0.25,1.823,0.112,2.863c-0.035,0.27-0.088,0.543-0.148,0.819
		c-0.631,2.923-2.563,6.122-5.645,7.875c0.017,0.055,0.025,0.115,0.041,0.171c3.181-1.375,5.608-4.296,6.767-7.304
		c0.658,0.496,1.218,1.069,1.638,1.705c-0.719,2.831-4.099,5.991-7.849,6.597c4.322-0.092,8.466-3.416,9.321-6.655
		c-0.649-1.02-1.628-1.895-2.794-2.562c0.405-1.364,0.54-2.711,0.353-3.908c-1.193-0.793-2.67-1.284-4.254-1.47
		c-0.239-1.382-0.705-2.633-1.391-3.613c-2.549-0.343-5.486,0.59-7.898,2.38c-1.395-2.562-3.519-4.581-5.698-5.323
		c-2.102,1.146-3.821,3.383-4.765,6.001c-2.635-1.388-5.591-1.889-7.853-1.261c-1.14,2.228-1.261,5.207-0.447,8.013
		c-2.922,0.425-5.582,1.741-7.036,3.558c0.369,2.401,1.929,4.819,4.125,6.605c-2.209,2.021-3.687,4.656-3.852,7.009
		c1.657,1.752,4.287,2.85,7.087,3.08c-0.667,2.943-0.371,5.97,0.85,8.002c2.389,0.494,5.21-0.13,7.654-1.577
		c1.078,2.796,2.994,5.129,5.125,6.139c2.311-0.934,4.346-3.088,5.571-5.724c2.473,1.592,5.33,2.347,7.612,1.938
		c0.607-0.953,1.021-2.077,1.242-3.287c1.656-0.142,3.173-0.601,4.335-1.364c0.249-1.523,0.042-3.2-0.534-4.833
		C44.187,33.182,45.157,32.344,45.784,31.397"/>
	<g>
		<path d="M29.75,29.241c-0.686,0.392-1.352,0.696-2.012,0.893c-0.659,0.197-1.312,0.3-1.956,0.3c-1.651,0-2.978-0.557-3.982-1.664
			c-1.004-1.105-1.506-2.574-1.506-4.387c0-1.804,0.532-3.273,1.6-4.401c1.067-1.131,2.462-1.699,4.178-1.699
			c1.134,0,2.026,0.216,2.678,0.651c0.653,0.432,0.978,1.015,0.978,1.741c0,0.393-0.127,0.707-0.371,0.945
			c-0.243,0.237-0.576,0.355-0.989,0.355c-0.18,0-0.363-0.031-0.548-0.094c-0.182-0.062-0.362-0.154-0.547-0.275v-2.001
			c-0.19-0.109-0.385-0.193-0.583-0.253c-0.199-0.062-0.396-0.091-0.596-0.091c-1.079,0-1.948,0.453-2.6,1.353
			c-0.656,0.896-0.986,2.102-0.986,3.601c0,1.486,0.375,2.657,1.113,3.507c0.746,0.853,1.754,1.282,3.031,1.282
			c0.533,0,1.053-0.084,1.562-0.257c0.51-0.172,1.019-0.431,1.537-0.78V29.241z"/>
		<path d="M33.996,12.318h0.93v7.428c0.958-0.529,1.745-0.908,2.352-1.128c0.607-0.222,1.14-0.335,1.589-0.335
			c1.071,0,1.892,0.319,2.454,0.957c0.564,0.633,0.847,1.553,0.847,2.763v6.871l0.416,0.394l1.284,0.117v0.882h-5.309v-0.882
			l1.144-0.117l0.415-0.394v-6.455c0-0.915-0.19-1.562-0.573-1.942c-0.378-0.382-1.011-0.573-1.891-0.573
			c-0.386,0-0.811,0.067-1.262,0.201c-0.45,0.13-0.94,0.328-1.465,0.599v8.17l0.43,0.394l1.154,0.117v0.882h-5.344v-0.882
			l1.322-0.117l0.415-0.394V13.948h-1.879v-0.76L33.996,12.318z"/>
		<path d="M52.75,28.846c-0.787,0.542-1.505,0.941-2.162,1.2c-0.656,0.257-1.27,0.388-1.839,0.388c-0.948,0-1.701-0.29-2.27-0.86
			c-0.57-0.569-0.85-1.323-0.85-2.26c0-1.038,0.426-1.863,1.277-2.455c0.854-0.597,2.802-1.26,5.844-1.992v-0.77
			c0-1.026-0.168-1.734-0.501-2.134c-0.334-0.395-0.911-0.599-1.741-0.599c-0.311,0-0.613,0.035-0.915,0.097
			c-0.3,0.067-0.615,0.162-0.941,0.285v2.048h-1.679c-0.293,0-0.495-0.049-0.604-0.156c-0.104-0.109-0.162-0.304-0.162-0.592
			c0-0.793,0.461-1.453,1.379-1.978c0.919-0.522,2.102-0.786,3.555-0.786c1.278,0,2.208,0.278,2.784,0.834
			c0.582,0.556,0.869,1.45,0.869,2.678v7.078l0.419,0.394l1.285,0.117v0.882h-3.431L52.75,28.846z M52.75,28.025v-4.298
			c-2.041,0.563-3.379,1.079-4.019,1.548c-0.642,0.468-0.961,1.082-0.961,1.849c0,0.61,0.179,1.093,0.534,1.454
			c0.353,0.364,0.824,0.547,1.419,0.547c0.382,0,0.82-0.094,1.315-0.279C51.537,28.665,52.105,28.392,52.75,28.025"/>
		<path d="M57.982,30.265v-0.882l1.302-0.117l0.415-0.394v-8.829h-1.716v-0.758l2.832-0.87h0.93v2.287
			c0.397-0.407,0.812-0.808,1.247-1.196c0.432-0.396,0.887-0.78,1.364-1.165c0.07-0.021,0.148-0.035,0.232-0.048
			c0.083-0.006,0.207-0.011,0.374-0.011c0.243,0,0.488,0.026,0.728,0.079c0.235,0.054,0.482,0.136,0.739,0.245v2.096h-0.777
			c-0.157-0.195-0.34-0.34-0.554-0.436c-0.21-0.099-0.443-0.146-0.698-0.146c-0.385,0-0.798,0.142-1.233,0.432
			c-0.43,0.293-0.902,0.74-1.422,1.353v6.968l0.418,0.394l1.702,0.117v0.882H57.982z"/>
		<path d="M70.52,18.416h0.951v10.457l0.416,0.394l1.312,0.117v0.882h-5.477v-0.882l1.284-0.117l0.416-0.394v-8.826h-1.7v-0.761
			L70.52,18.416z M70.614,12.998c0.396,0,0.729,0.137,1.007,0.415c0.274,0.279,0.408,0.611,0.408,1c0,0.39-0.134,0.721-0.408,0.993
			c-0.277,0.265-0.61,0.4-1.007,0.4c-0.39,0-0.719-0.136-0.996-0.4c-0.271-0.272-0.41-0.603-0.41-0.993
			c0-0.396,0.138-0.731,0.41-1.007C69.896,13.135,70.224,12.998,70.614,12.998"/>
		<path d="M77.17,12.318h0.93v6.825c0.603-0.285,1.182-0.502,1.733-0.645c0.551-0.143,1.086-0.216,1.616-0.216
			c1.435,0,2.594,0.516,3.488,1.544c0.885,1.029,1.332,2.368,1.332,4.017c0,2.115-0.6,3.71-1.791,4.798
			c-1.199,1.081-2.956,1.624-5.285,1.624h-3.145V13.948h-1.88v-0.76L77.17,12.318z M78.1,29.146
			c0.254,0.006,0.494,0.015,0.718,0.018c0.229,0.003,0.439,0.008,0.627,0.008c1.597,0,2.769-0.392,3.513-1.174
			c0.749-0.783,1.122-2.013,1.122-3.689c0-1.513-0.336-2.683-0.993-3.5c-0.669-0.818-1.611-1.227-2.844-1.227
			c-0.283,0-0.607,0.035-0.961,0.096c-0.36,0.066-0.751,0.163-1.182,0.299V29.146z"/>
		<path d="M91.077,18.416h0.951v10.457l0.417,0.394l1.311,0.117v0.882h-5.477v-0.882l1.282-0.117l0.419-0.394v-8.826h-1.701v-0.761
			L91.077,18.416z M91.17,12.998c0.399,0,0.731,0.137,1.009,0.415c0.272,0.279,0.409,0.611,0.409,1c0,0.39-0.137,0.721-0.409,0.993
			c-0.277,0.265-0.609,0.4-1.009,0.4c-0.39,0-0.717-0.136-0.996-0.4c-0.269-0.272-0.409-0.603-0.409-0.993
			c0-0.396,0.141-0.731,0.409-1.007C90.453,13.135,90.78,12.998,91.17,12.998"/>
		<path d="M95.262,30.265v-0.882l1.323-0.117l0.414-0.394v-8.829h-1.737v-0.758l2.838-0.87h0.924v1.331
			c0.979-0.536,1.765-0.915,2.36-1.133c0.596-0.218,1.121-0.33,1.575-0.33c1.058,0,1.876,0.319,2.438,0.957
			c0.561,0.633,0.848,1.553,0.848,2.763v6.871l0.414,0.394l1.312,0.117v0.882h-5.336v-0.882l1.166-0.117l0.42-0.394v-6.455
			c0-0.915-0.191-1.562-0.57-1.942c-0.373-0.382-1.008-0.573-1.899-0.573c-0.39,0-0.809,0.067-1.259,0.201
			c-0.457,0.13-0.94,0.328-1.469,0.599v8.17l0.42,0.394l1.165,0.117v0.882H95.262z"/>
		<path d="M112.074,27.383c0.425,0,0.789,0.154,1.091,0.454c0.296,0.298,0.444,0.67,0.444,1.105c0,0.432-0.153,0.793-0.452,1.09
			c-0.305,0.299-0.664,0.449-1.083,0.449c-0.439,0-0.809-0.15-1.107-0.442c-0.3-0.292-0.454-0.657-0.454-1.098
			c0-0.429,0.154-0.793,0.454-1.101C111.266,27.537,111.635,27.383,112.074,27.383"/>
		<path d="M126.109,29.241c-0.683,0.392-1.352,0.696-2.013,0.893c-0.658,0.197-1.31,0.3-1.955,0.3c-1.651,0-2.978-0.557-3.983-1.664
			c-1.002-1.105-1.505-2.574-1.505-4.387c0-1.804,0.534-3.273,1.602-4.401c1.068-1.131,2.46-1.699,4.179-1.699
			c1.133,0,2.023,0.216,2.677,0.651c0.65,0.432,0.978,1.015,0.978,1.741c0,0.393-0.129,0.707-0.372,0.945
			c-0.246,0.237-0.576,0.355-0.99,0.355c-0.179,0-0.361-0.031-0.546-0.094c-0.183-0.062-0.366-0.154-0.546-0.275v-2.001
			c-0.192-0.109-0.388-0.193-0.585-0.253c-0.198-0.062-0.396-0.091-0.595-0.091c-1.08,0-1.947,0.453-2.604,1.353
			c-0.653,0.896-0.981,2.102-0.981,3.601c0,1.486,0.37,2.657,1.111,3.507c0.746,0.853,1.755,1.282,3.031,1.282
			c0.533,0,1.055-0.084,1.562-0.257c0.51-0.172,1.019-0.431,1.536-0.78V29.241z"/>
		<path d="M133.477,18.283c1.659,0,3.021,0.572,4.084,1.714c1.063,1.138,1.595,2.599,1.595,4.386c0,1.785-0.531,3.249-1.6,4.387
			c-1.068,1.14-2.432,1.711-4.079,1.711c-1.652,0-3.009-0.567-4.069-1.703c-1.061-1.137-1.588-2.599-1.588-4.395
			c0-1.797,0.524-3.261,1.577-4.394C130.448,18.851,131.81,18.283,133.477,18.283 M133.477,19.333c-1.016,0-1.831,0.459-2.446,1.376
			c-0.615,0.915-0.924,2.141-0.924,3.674s0.309,2.757,0.927,3.671c0.618,0.92,1.431,1.376,2.443,1.376
			c1.021,0,1.846-0.456,2.465-1.368c0.618-0.913,0.929-2.141,0.929-3.679c0-1.527-0.311-2.747-0.939-3.669
			C135.314,19.794,134.49,19.333,133.477,19.333"/>
		<path d="M151.428,19.929c0.938-0.558,1.752-0.969,2.442-1.241c0.69-0.27,1.275-0.406,1.751-0.406c0.984,0,1.753,0.319,2.3,0.96
			c0.547,0.639,0.821,1.535,0.821,2.686v0.073v6.871l0.441,0.394l1.296,0.115v0.883h-5.317v-0.883l1.139-0.115l0.441-0.394v-6.455
			c0-0.868-0.178-1.5-0.537-1.906c-0.355-0.406-0.911-0.609-1.657-0.609c-0.373,0-0.786,0.067-1.242,0.201
			c-0.457,0.13-0.958,0.328-1.505,0.599v8.17l0.425,0.394l1.154,0.115v0.883h-5.199v-0.883l1.176-0.115l0.421-0.394v-6.455
			c0-0.86-0.179-1.491-0.533-1.899c-0.353-0.409-0.896-0.616-1.626-0.616c-0.397,0-0.822,0.067-1.278,0.201
			c-0.46,0.13-0.953,0.328-1.493,0.599v8.17l0.415,0.394l1.166,0.115v0.883h-5.348v-0.883l1.322-0.115l0.417-0.394v-8.826h-1.739
			v-0.761l2.838-0.87h0.929v1.331c0.848-0.497,1.587-0.867,2.218-1.105c0.628-0.236,1.189-0.358,1.687-0.358
			c0.594,0,1.117,0.14,1.576,0.418C150.785,18.979,151.151,19.385,151.428,19.929"/>
	</g>
</g>
</svg>
