<?xml version="1.0" encoding="utf-8"?>
<!-- Generator: Adobe Illustrator 22.0.1, SVG Export Plug-In . SVG Version: 6.00 Build 0)  -->
<svg version="1.1" id="White_x5F_BG_1_" xmlns="http://www.w3.org/2000/svg" xmlns:xlink="http://www.w3.org/1999/xlink" x="0px"
	 y="0px" viewBox="0 0 302.6 78.2" style="enable-background:new 0 0 302.6 78.2;" xml:space="preserve">
<style type="text/css">
	.st0{enable-background:new    ;}
	.st1{fill:#FFDF44;}
	.st2{fill:#FFFFFF;}
	.st3{fill:#FFD616;}
	.st4{fill:#FDC400;}
</style>
<g id="icon_1_" class="st0">
	<g id="Ellipse_2_copy_3">
		<g>
			<path class="st1" d="M49.8,29.3c8.8,12.9,24.5,4.2,26.7-4.1C71.5,17.3,54.3,14.7,49.8,29.3z"/>
		</g>
	</g>
	<g id="Ellipse_2_copy_5">
		<g>
			<path class="st2" d="M48.8,29.5c8.5,13.2,23.4,3.7,25.4-4.2C69.3,17.9,52.9,15.7,48.8,29.5z"/>
		</g>
	</g>
	<g id="Ellipse_2_copy_17">
		<g>
			<path class="st3" d="M72.6,14.8c-9.5-6.3-30-0.8-27.9,17.8C60.8,42.7,74.2,25.2,72.6,14.8z"/>
		</g>
	</g>
	<g id="Ellipse_2_copy_4">
		<g>
			<path class="st2" d="M69.7,15.5c-8.5-4.6-30.4,2.2-26.1,18.8C62.1,42,72,24.1,69.7,15.5z"/>
		</g>
	</g>
	<g id="Ellipse_2_copy_16">
		<g>
			<path class="st4" d="M63.5,6.6C52.2,5.1,36.2,19.1,46.3,34.9C65.2,36.9,69.6,15.3,63.5,6.6z"/>
		</g>
	</g>
	<g id="Ellipse_2">
		<g>
			<path class="st3" d="M41.7,1.9c-10,5.4-14.7,26.2,2.8,33C60.9,25.3,51.7,5.3,41.7,1.9z"/>
		</g>
	</g>
	<g id="Ellipse_2_copy_6">
		<g>
			<path class="st4" d="M21.4,9.5c-5.2,10.1,2.7,29.9,20.9,25.7C50.5,18,31.6,6.7,21.4,9.5z"/>
		</g>
	</g>
	<g id="Ellipse_2_copy_7">
		<g>
			<path class="st3" d="M9.4,28.1c1.7,11.2,19.7,22.7,32,8.6C37.9,18,16,19.9,9.4,28.1z"/>
		</g>
	</g>
	<g id="Ellipse_2_copy_8">
		<g>
			<path class="st4" d="M9.8,50c7.8,8.3,29.1,7.5,31.2-11.1C27.5,25.4,10.6,39.5,9.8,50z"/>
		</g>
	</g>
	<g id="Ellipse_2_copy_9">
		<g>
			<path class="st3" d="M41.8,40.8c-18.8-3.3-24.6,17.9-19.2,27C33.7,70.1,50.7,57.3,41.8,40.8z"/>
		</g>
	</g>
	<g id="Ellipse_2_copy_15">
		<g>
			<path class="st1" d="M48.5,44.9c4.4,15.9,23.3,12.6,28.3,5C74.5,40.3,58,31.8,48.5,44.9z"/>
		</g>
	</g>
	<g id="Ellipse_2_copy_14">
		<g>
			<path class="st2" d="M48.8,45.3c4.1,14.9,20.9,11.2,25.4,4.4C72.1,41,57.7,30.7,48.8,45.3z"/>
		</g>
	</g>
	<g id="Ellipse_2_copy_19">
		<g>
			<path class="st3" d="M45.5,43.5C43,62.4,64.5,67.4,73.3,61.6C75.1,50.3,61.6,33.9,45.5,43.5z"/>
		</g>
	</g>
	<g id="Ellipse_2_copy_13">
		<g>
			<path class="st2" d="M48.5,43.4c-3.5,15.5,14,21.3,21.7,17.1C72.6,51.3,61.4,33.9,48.5,43.4z"/>
		</g>
	</g>
	<g id="Ellipse_2_copy_20">
		<g>
			<path class="st3" d="M45.9,41.5c-9.8,16.4,8,29.4,18.4,27.5C70.4,59.4,64.4,39,45.9,41.5z"/>
		</g>
	</g>
	<g id="Ellipse_2_copy_10">
		<g>
			<path class="st4" d="M44.2,42c-17.4,7.6-10.5,28.6-1,33.1C53.7,70.9,60.7,50.8,44.2,42z"/>
		</g>
	</g>
	<g id="Ellipse_3">
		<g>
			<path class="st2" d="M61.2,37.2C60.4,28,52.3,21.1,43,21.9c-9.2,0.8-16.1,8.9-15.3,18.1c0.8,9.2,8.9,16.1,18.1,15.3
				C55.1,54.6,62,46.5,61.2,37.2z"/>
		</g>
	</g>
</g>
<g id="charibin">
	<g>
		<path d="M109.4,52.2c-1.6,0.9-3.2,1.6-4.7,2.1c-1.5,0.5-3.1,0.7-4.6,0.7c-3.9,0-7-1.3-9.3-3.9c-2.3-2.6-3.5-6-3.5-10.3
			c0-4.2,1.2-7.6,3.7-10.3c2.5-2.6,5.7-4,9.8-4c2.7,0,4.7,0.5,6.3,1.5c1.5,1,2.3,2.4,2.3,4.1c0,0.9-0.3,1.6-0.9,2.2
			c-0.6,0.6-1.3,0.8-2.3,0.8c-0.4,0-0.9-0.1-1.3-0.2c-0.4-0.1-0.9-0.4-1.3-0.6v-4.7c-0.4-0.3-0.9-0.5-1.4-0.6
			c-0.5-0.1-0.9-0.2-1.4-0.2c-2.5,0-4.6,1.1-6.1,3.2c-1.5,2.1-2.3,4.9-2.3,8.4c0,3.5,0.9,6.2,2.6,8.2c1.7,2,4.1,3,7.1,3
			c1.2,0,2.5-0.2,3.6-0.6c1.2-0.4,2.4-1,3.6-1.8V52.2z"/>
		<path d="M119.3,12.7h2.2v17.4c2.2-1.2,4.1-2.1,5.5-2.6c1.4-0.5,2.7-0.8,3.7-0.8c2.5,0,4.4,0.7,5.7,2.2c1.3,1.5,2,3.6,2,6.5v16.1
			l1,0.9l3,0.3v2.1h-12.4v-2.1l2.7-0.3l1-0.9V36.3c0-2.1-0.4-3.6-1.3-4.5c-0.9-0.9-2.4-1.3-4.4-1.3c-0.9,0-1.9,0.2-3,0.5
			c-1.1,0.3-2.2,0.8-3.4,1.4v19.1l1,0.9l2.7,0.3v2.1h-12.5v-2.1l3.1-0.3l1-0.9V16.5h-4.4v-1.8L119.3,12.7z"/>
		<path d="M163.1,51.3c-1.8,1.3-3.5,2.2-5.1,2.8s-3,0.9-4.3,0.9c-2.2,0-4-0.7-5.3-2c-1.3-1.3-2-3.1-2-5.3c0-2.4,1-4.3,3-5.7
			c2-1.4,6.5-2.9,13.7-4.6v-1.8c0-2.4-0.4-4.1-1.2-5c-0.8-0.9-2.1-1.4-4.1-1.4c-0.7,0-1.4,0.1-2.1,0.2c-0.7,0.1-1.4,0.4-2.2,0.7v4.8
			h-3.9c-0.7,0-1.2-0.1-1.4-0.4c-0.2-0.3-0.4-0.7-0.4-1.4c0-1.9,1.1-3.4,3.2-4.6c2.1-1.2,4.9-1.8,8.3-1.8c3,0,5.2,0.6,6.5,1.9
			c1.4,1.3,2,3.4,2,6.3v16.5l1,0.9l3,0.3v2.1h-8L163.1,51.3z M163.1,49.4v-10c-4.8,1.3-7.9,2.5-9.4,3.6c-1.5,1.1-2.2,2.5-2.2,4.3
			c0,1.4,0.4,2.6,1.2,3.4c0.8,0.8,1.9,1.3,3.3,1.3c0.9,0,1.9-0.2,3.1-0.6C160.3,50.9,161.6,50.2,163.1,49.4z"/>
		<path d="M175.3,54.6v-2.1l3-0.3l1-0.9V30.7h-4V29l6.6-2h2.2v5.3c0.9-0.9,1.9-1.9,2.9-2.8c1-0.9,2.1-1.8,3.2-2.7
			c0.2-0.1,0.3-0.1,0.5-0.1c0.2,0,0.5,0,0.9,0c0.6,0,1.1,0.1,1.7,0.2c0.6,0.1,1.1,0.3,1.7,0.6v4.9h-1.8c-0.4-0.4-0.8-0.8-1.3-1
			c-0.5-0.2-1-0.3-1.6-0.3c-0.9,0-1.9,0.3-2.9,1c-1,0.7-2.1,1.7-3.3,3.2v16.3l1,0.9l4,0.3v2.1H175.3z"/>
		<path d="M204.6,26.9h2.2v24.4l1,0.9l3.1,0.3v2.1h-12.8v-2.1l3-0.3l1-0.9V30.7h-4V29L204.6,26.9z M204.9,14.3c0.9,0,1.7,0.3,2.4,1
			c0.6,0.6,1,1.4,1,2.3c0,0.9-0.3,1.7-1,2.3c-0.6,0.6-1.4,0.9-2.4,0.9c-0.9,0-1.7-0.3-2.3-0.9c-0.6-0.6-1-1.4-1-2.3
			c0-0.9,0.3-1.7,1-2.4C203.2,14.6,204,14.3,204.9,14.3z"/>
		<path d="M220.2,12.7h2.2v15.9c1.4-0.7,2.8-1.2,4-1.5c1.3-0.3,2.5-0.5,3.8-0.5c3.4,0,6.1,1.2,8.2,3.6s3.1,5.5,3.1,9.4
			c0,4.9-1.4,8.7-4.2,11.2c-2.8,2.5-6.9,3.8-12.3,3.8h-7.3V16.5h-4.4v-1.8L220.2,12.7z M222.4,52c0.6,0,1.2,0,1.7,0c0.5,0,1,0,1.5,0
			c3.7,0,6.5-0.9,8.2-2.7s2.6-4.7,2.6-8.6c0-3.5-0.8-6.3-2.3-8.2c-1.5-1.9-3.8-2.9-6.6-2.9c-0.7,0-1.4,0.1-2.3,0.2
			c-0.8,0.1-1.8,0.4-2.8,0.7V52z"/>
		<path d="M252.7,26.9h2.2v24.4l1,0.9l3.1,0.3v2.1h-12.8v-2.1l3-0.3l1-0.9V30.7h-4V29L252.7,26.9z M252.9,14.3c0.9,0,1.7,0.3,2.4,1
			c0.6,0.6,1,1.4,1,2.3c0,0.9-0.3,1.7-1,2.3c-0.6,0.6-1.4,0.9-2.4,0.9c-0.9,0-1.7-0.3-2.3-0.9c-0.6-0.6-1-1.4-1-2.3
			c0-0.9,0.3-1.7,1-2.4C251.2,14.6,252,14.3,252.9,14.3z"/>
		<path d="M262.5,54.6v-2.1l3.1-0.3l1-0.9V30.7h-4.1V29l6.6-2h2.2v3.1c2.3-1.3,4.1-2.1,5.5-2.7c1.4-0.5,2.6-0.8,3.7-0.8
			c2.5,0,4.4,0.7,5.7,2.2c1.3,1.5,2,3.6,2,6.5v16.1l1,0.9l3.1,0.3v2.1h-12.5v-2.1l2.7-0.3l1-0.9V36.3c0-2.1-0.4-3.6-1.3-4.5
			c-0.9-0.9-2.4-1.3-4.4-1.3c-0.9,0-1.9,0.2-3,0.5c-1.1,0.3-2.2,0.8-3.4,1.4v19.1l1,0.9l2.7,0.3v2.1H262.5z"/>
	</g>
</g>
</svg>
